<svg width="30" height="15" viewBox="0 0 30 15" fill="none" xmlns="http://www.w3.org/2000/svg">
<g clip-path="url(#clip0_3_958)">
<path d="M26.2332 1.88178L26.1151 1.39655L25.6297 1.51403C23.4752 2.03554 20.7258 3.26495 18.5252 5.14026C16.3214 7.01682 14.5528 9.65137 14.6946 12.9546L14.7151 13.4332L15.1941 13.4332L16.262 13.4332L16.7836 13.4332L16.7615 12.9119C16.6577 10.4669 17.9486 8.34889 19.8672 6.7148L19.8673 6.71478C21.7924 5.07481 24.2386 3.98028 26.1179 3.52425L26.6041 3.40627L26.4858 2.92014L26.2332 1.88178Z" fill="#F5C158" stroke="#F5C158"/>
<path d="M26.2332 1.88178L26.1151 1.39655L25.6297 1.51403C23.4752 2.03554 20.7258 3.26495 18.5252 5.14026C16.3214 7.01682 14.5528 9.65137 14.6946 12.9546L14.7151 13.4332L15.1941 13.4332L16.262 13.4332L16.7836 13.4332L16.7615 12.9119C16.6577 10.4669 17.9486 8.34889 19.8672 6.7148L19.8673 6.71478C21.7924 5.07481 24.2386 3.98028 26.1179 3.52425L26.6041 3.40627L26.4858 2.92014L26.2332 1.88178Z" fill="#F5C158" stroke="#F5C158"/>
<path d="M4.76685 1.88178L4.88492 1.39655L5.3703 1.51403C7.52484 2.03554 10.2742 3.26495 12.4748 5.14026C14.6786 7.01682 16.4472 9.65137 16.3054 12.9546L16.2849 13.4332L15.8059 13.4332L14.738 13.4332L14.2164 13.4332L14.2385 12.9119C14.3423 10.4669 13.0514 8.34889 11.1328 6.7148L11.1327 6.71478C9.20756 5.07481 6.7614 3.98028 4.88209 3.52425L4.39588 3.40627L4.51418 2.92014L4.76685 1.88178Z" fill="#F5C158" stroke="#F5C158"/>
</g>
<defs>
<clipPath id="clip0_3_958">
<rect width="15" height="30" fill="white" transform="translate(30) rotate(90)"/>
</clipPath>
</defs>
</svg>
