<svg width="30" height="29" viewBox="0 0 30 29" fill="none" xmlns="http://www.w3.org/2000/svg">
<path d="M1.1875 1.75H3.151C3.8735 1.75 4.50392 2.23592 4.69092 2.93292L5.2335 4.96867M5.2335 4.96867C13.1252 4.74751 21.0094 5.6248 28.6595 7.57533C27.4922 11.0518 26.1052 14.4292 24.5172 17.6875H8.625M5.2335 4.96867L8.625 17.6875M8.625 17.6875C7.49783 17.6875 6.41683 18.1353 5.6198 18.9323C4.82277 19.7293 4.375 20.8103 4.375 21.9375H26.6875M6.5 26.1875C6.5 26.4693 6.38806 26.7395 6.1888 26.9388C5.98954 27.1381 5.71929 27.25 5.4375 27.25C5.15571 27.25 4.88546 27.1381 4.6862 26.9388C4.48694 26.7395 4.375 26.4693 4.375 26.1875C4.375 25.9057 4.48694 25.6355 4.6862 25.4362C4.88546 25.2369 5.15571 25.125 5.4375 25.125C5.71929 25.125 5.98954 25.2369 6.1888 25.4362C6.38806 25.6355 6.5 25.9057 6.5 26.1875ZM24.5625 26.1875C24.5625 26.4693 24.4506 26.7395 24.2513 26.9388C24.052 27.1381 23.7818 27.25 23.5 27.25C23.2182 27.25 22.948 27.1381 22.7487 26.9388C22.5494 26.7395 22.4375 26.4693 22.4375 26.1875C22.4375 25.9057 22.5494 25.6355 22.7487 25.4362C22.948 25.2369 23.2182 25.125 23.5 25.125C23.7818 25.125 24.052 25.2369 24.2513 25.4362C24.4506 25.6355 24.5625 25.9057 24.5625 26.1875Z" stroke="#01483A" stroke-width="2.125" stroke-linecap="round" stroke-linejoin="round"/>
</svg>
