<svg width="126" height="25" viewBox="0 0 126 25" fill="none" xmlns="http://www.w3.org/2000/svg">
<path d="M36.1285 0.338432H39.275V15.7449C39.275 21.0915 36.0563 24.6372 30.095 24.6372C23.9605 24.6372 20.915 21.1056 20.915 15.7449V0.338432H24.0616V15.4072C24.0616 19.5298 26.0967 21.8373 29.9219 21.8373H30.2682C34.0932 21.8373 36.1285 19.5298 36.1285 15.4072V0.338432ZM101.847 12.3119C101.933 19.8393 96.939 24.6934 90.386 24.6231C83.8043 24.6934 78.839 19.8393 78.9256 12.3119C78.839 4.78454 83.8043 -0.069595 90.386 0.000754566C96.9537 -0.069595 101.933 4.78454 101.847 12.3119ZM98.6856 12.3119C98.7435 6.45884 95.2215 2.74438 90.5595 2.78659H90.2129C85.5219 2.73032 82.0288 6.45884 82.0721 12.3119C82.0145 18.165 85.5219 21.8935 90.2129 21.8373H90.5595C95.2215 21.8935 98.7289 18.165 98.6856 12.3119ZM122.776 0.338432V20.3177L110.68 0.338432H106.35V24.2854H109.497V4.1795L121.664 24.2854H125.952V0.338432H122.776ZM79.1562 0.338432H58.3136V3.13833H67.1618V24.2854H70.3083V3.13833H79.1562V0.338432ZM48.3973 0.338432H45.265V24.2854L45.2941 24.2994H45.5826H49.2922C52.0635 20.5428 56.9136 18.1087 62.5285 18.1087V15.0415C56.8414 15.0415 51.8182 17.4474 48.383 20.8664V0.338432H48.3973ZM0 24.2854H3.14663V15.1118H16.3249V12.0446H3.14663V3.23683H16.3249V0.338432H0V24.2854Z" fill="#01483A"/>
</svg>
